<svg width="45" height="37" viewBox="0 0 45 37" fill="none" xmlns="http://www.w3.org/2000/svg">
<path d="M5.44113 35.82C4.12113 36.48 3.09447 36.3333 2.36113 35.38C1.48113 34.1333 1.6278 33.07 2.80113 32.19C4.7078 30.7967 6.43113 29.33 7.97113 27.79C9.58447 26.25 10.8311 24.1967 11.7111 21.63C12.1511 20.31 12.2245 19.1367 11.9311 18.11C11.7111 17.0833 10.8311 16.4967 9.29113 16.35C6.7978 16.0567 4.7078 15.2867 3.02113 14.04C1.4078 12.7933 0.601133 10.9233 0.601133 8.43C0.601133 6.37666 1.37113 4.54333 2.91113 2.92999C4.45113 1.31666 6.61447 0.509993 9.40113 0.509993C12.1145 0.509993 14.4978 1.60999 16.5511 3.81C18.6045 6.00999 19.6311 8.94333 19.6311 12.61C19.6311 16.13 18.9345 19.3567 17.5411 22.29C16.1478 25.15 14.3511 27.7167 12.1511 29.99C10.0245 32.2633 7.7878 34.2067 5.44113 35.82ZM30.3011 35.82C28.9811 36.48 27.9545 36.3333 27.2211 35.38C26.3411 34.1333 26.4878 33.07 27.6611 32.19C29.5678 30.7967 31.2911 29.33 32.8311 27.79C34.4445 26.25 35.6911 24.1967 36.5711 21.63C37.0111 20.31 37.0845 19.1367 36.7911 18.11C36.5711 17.0833 35.6911 16.4967 34.1511 16.35C31.6578 16.0567 29.5678 15.2867 27.8811 14.04C26.2678 12.7933 25.4611 10.9233 25.4611 8.43C25.4611 6.37666 26.2311 4.54333 27.7711 2.92999C29.3111 1.31666 31.4745 0.509993 34.2611 0.509993C36.9745 0.509993 39.3578 1.60999 41.4111 3.81C43.4645 6.00999 44.4911 8.94333 44.4911 12.61C44.4911 16.13 43.7945 19.3567 42.4011 22.29C41.0078 25.15 39.2111 27.7167 37.0111 29.99C34.8845 32.2633 32.6478 34.2067 30.3011 35.82Z" fill="white"/>
</svg>
