<svg width="12" height="12" viewBox="0 0 12 12" fill="none" xmlns="http://www.w3.org/2000/svg">
<path d="M6.87335 6.00839L11.8052 1.09801C12.0416 0.863692 12.0416 0.484357 11.8052 0.250643C11.5693 0.0163301 11.1862 0.0163301 10.9504 0.250643L6.02275 5.15683L1.04963 0.177533C0.813788 -0.0591775 0.430688 -0.0591775 0.194842 0.177533C-0.0410035 0.414842 -0.0410035 0.798971 0.194842 1.03568L5.16436 6.01139L0.176884 10.9769C-0.0589614 11.2112 -0.0589614 11.5906 0.176884 11.8243C0.41273 12.0586 0.79583 12.0586 1.03168 11.8243L6.01496 6.86294L10.9683 11.8225C11.2042 12.0592 11.5873 12.0592 11.8231 11.8225C12.059 11.5852 12.059 11.201 11.8231 10.9643L6.87335 6.00839Z" fill="#BCBCBC"/>
</svg>
