<svg width="25" height="16" viewBox="0 0 25 16" fill="none" xmlns="http://www.w3.org/2000/svg">
<path d="M21.3333 0H3.04762C1.36457 0 0 1.36533 0 3.04762V12.9524C0 14.6354 1.36457 16 3.04762 16H21.3333C23.0164 16 24.381 14.6354 24.381 12.9524V3.04762C24.381 1.36533 23.0164 0 21.3333 0ZM1.52381 4L6.85638 8L1.52381 12V4ZM22.8571 12.9524C22.8571 13.7935 22.173 14.4762 21.3333 14.4762H3.04762C2.20724 14.4762 1.52381 13.7935 1.52381 12.9524L7.49105 8.47619L10.819 10.973C11.2251 11.2762 11.7074 11.4301 12.1905 11.4301C12.6728 11.4301 13.155 11.277 13.5611 10.973L16.8899 8.47619L22.8571 12.9524ZM22.8571 12L17.5238 8L22.8571 4V12ZM13.104 10.3634C12.8381 10.563 12.5227 10.6682 12.1905 10.6682C11.8583 10.6682 11.5421 10.5623 11.2762 10.3634L8.12571 8L7.49105 7.52381L1.52381 3.04838V3.04762C1.52381 2.20724 2.20724 1.52381 3.04762 1.52381H21.3333C22.173 1.52381 22.8571 2.20724 22.8571 3.04762L13.104 10.3634Z" fill="#828282"/>
</svg>
