<svg width="56" height="56" viewBox="0 0 56 56" fill="none" xmlns="http://www.w3.org/2000/svg">
<rect width="56" height="56" rx="10" fill="#323232"/>
<path d="M22.6556 41.5334C22.3436 41.5334 22.1876 41.3654 22.1876 41.0294C22.1876 40.6694 22.3436 40.4894 22.6556 40.4894C23.9996 40.4894 24.8996 40.2974 25.3556 39.9134C25.8116 39.5294 26.0396 38.9894 26.0396 38.2934V16.5134H23.1236C22.2116 16.5134 21.4316 16.7294 20.7836 17.1614C20.1356 17.5694 19.5956 18.0974 19.1636 18.7454C18.7316 19.3694 18.3836 19.9934 18.1196 20.6174C17.8556 21.2414 17.6516 21.7694 17.5076 22.2014C17.4596 22.3454 17.3876 22.4294 17.2916 22.4534C17.1956 22.4774 17.0636 22.4774 16.8956 22.4534C16.8716 22.4534 16.8476 22.4534 16.8236 22.4534C16.6796 22.4294 16.5956 22.3814 16.5716 22.3094C16.5476 22.2134 16.5356 22.1174 16.5356 22.0214C16.5356 21.9254 16.5476 21.6134 16.5716 21.0854C16.5956 20.5574 16.6196 19.9574 16.6436 19.2854C16.6916 18.6134 16.7276 17.9894 16.7516 17.4134C16.7756 16.8374 16.7876 16.4414 16.7876 16.2254C16.7876 15.6734 17.0996 15.3974 17.7236 15.3974C17.8436 15.3974 18.3596 15.4094 19.2716 15.4334C20.1836 15.4574 21.4076 15.4814 22.9436 15.5054C24.5036 15.5054 26.2916 15.5054 28.3076 15.5054C30.3236 15.5054 32.0996 15.5054 33.6356 15.5054C35.1956 15.4814 36.4436 15.4574 37.3796 15.4334C38.3156 15.4094 38.8436 15.3974 38.9636 15.3974C39.5396 15.3974 39.8396 15.6854 39.8636 16.2614C39.8636 16.4294 39.8756 16.8014 39.8996 17.3774C39.9476 17.9294 39.9836 18.5534 40.0076 19.2494C40.0316 19.9214 40.0556 20.5334 40.0796 21.0854C40.1036 21.6134 40.1156 21.9254 40.1156 22.0214C40.1156 22.1654 40.1036 22.2734 40.0796 22.3454C40.0556 22.3934 39.9476 22.4294 39.7556 22.4534C39.7316 22.4534 39.6956 22.4654 39.6476 22.4894C39.5516 22.4894 39.4676 22.4894 39.3956 22.4894C39.3236 22.4654 39.2396 22.3574 39.1436 22.1654C38.9516 21.7574 38.7116 21.2414 38.4236 20.6174C38.1596 19.9934 37.8116 19.3694 37.3796 18.7454C36.9716 18.1214 36.4556 17.5934 35.8316 17.1614C35.2076 16.7294 34.4396 16.5134 33.5276 16.5134H30.3596V38.2934C30.3596 38.7014 30.4196 39.0734 30.5396 39.4094C30.6836 39.7454 30.9836 40.0094 31.4396 40.2014C31.9196 40.3934 32.6516 40.4894 33.6356 40.4894C33.9956 40.4894 34.1756 40.6694 34.1756 41.0294C34.1756 41.3654 33.9956 41.5334 33.6356 41.5334C33.3956 41.5334 32.7956 41.5214 31.8356 41.4974C30.8996 41.4494 29.6876 41.4254 28.1996 41.4254C26.7116 41.4254 25.4756 41.4494 24.4916 41.4974C23.5316 41.5214 22.9196 41.5334 22.6556 41.5334Z" fill="white"/>
</svg>
