<svg width="19" height="18" viewBox="0 0 19 18" fill="none" xmlns="http://www.w3.org/2000/svg">
<path d="M12.2515 12.1143C11.6302 12.7648 10.8277 13.214 9.94805 13.4037C9.06837 13.5935 8.15193 13.515 7.31735 13.1786C6.48278 12.8422 5.76849 12.2632 5.26694 11.5167C4.7654 10.7702 4.49969 9.8904 4.50421 8.9913C4.50421 8.1556 4.73715 7.3364 5.17691 6.62551C5.61668 5.91462 6.2459 5.34012 6.99408 4.96638C7.74225 4.59264 8.57982 4.43443 9.41293 4.50949C10.246 4.58454 11.0418 4.88988 11.7109 5.3913V4.4913H13.5126V10.3413C13.5126 10.6993 13.655 11.0427 13.9084 11.2959C14.1618 11.5491 14.5055 11.6913 14.8639 11.6913C15.2223 11.6913 15.566 11.5491 15.8194 11.2959C16.0728 11.0427 16.2152 10.6993 16.2152 10.3413V8.9913C16.214 7.42493 15.7017 5.90165 14.7557 4.65248C13.8098 3.40331 12.4819 2.4964 10.9735 2.06929C9.46508 1.64218 7.85838 1.71818 6.39709 2.28575C4.93579 2.85332 3.69962 3.8815 2.87605 5.21437C2.05248 6.54723 1.68644 8.11206 1.83344 9.67153C1.98044 11.231 2.63247 12.7 3.69063 13.8559C4.74879 15.0117 6.15537 15.7912 7.69703 16.0762C9.23869 16.3613 10.8313 16.1362 12.2334 15.4353L13.0442 17.0463C11.292 17.9235 9.30117 18.2059 7.37379 17.8506C5.44641 17.4953 3.68759 16.5217 2.36411 15.0775C1.04063 13.6332 0.224698 11.7972 0.0400695 9.84781C-0.144559 7.89844 0.312192 5.94208 1.34104 4.27548C2.3699 2.60889 3.91471 1.32298 5.74118 0.612806C7.56765 -0.0973683 9.57612 -0.193063 11.4619 0.340237C13.3478 0.873538 15.0081 2.00674 16.191 3.56795C17.3739 5.12916 18.0149 7.03321 18.0168 8.9913H17.8547H18.0078V10.3413C18.0098 11.0165 17.7947 11.6745 17.394 12.2182C16.9933 12.7619 16.4284 13.1627 15.7825 13.3613C15.1366 13.5599 14.4438 13.546 13.8065 13.3214C13.1691 13.0969 12.6208 12.6737 12.2424 12.1143H12.2515ZM9.00842 11.6913C9.72518 11.6913 10.4126 11.4068 10.9194 10.9005C11.4262 10.3941 11.7109 9.70738 11.7109 8.9913C11.7109 8.27522 11.4262 7.58846 10.9194 7.08211C10.4126 6.57576 9.72518 6.2913 9.00842 6.2913C8.29167 6.2913 7.60427 6.57576 7.09745 7.08211C6.59063 7.58846 6.3059 8.27522 6.3059 8.9913C6.3059 9.70738 6.59063 10.3941 7.09745 10.9005C7.60427 11.4068 8.29167 11.6913 9.00842 11.6913Z" fill="#828282"/>
</svg>
