<svg width="24" height="24" viewBox="0 0 24 24" fill="none" xmlns="http://www.w3.org/2000/svg">
<path d="M0.857143 6.1875H23.1429C23.6163 6.1875 24 5.85173 24 5.4375V3.5625C24 3.14827 23.6163 2.8125 23.1429 2.8125H0.857143C0.383732 2.8125 0 3.14827 0 3.5625V5.4375C0 5.85173 0.383732 6.1875 0.857143 6.1875ZM0.857143 13.6875H23.1429C23.6163 13.6875 24 13.3517 24 12.9375V11.0625C24 10.6483 23.6163 10.3125 23.1429 10.3125H0.857143C0.383732 10.3125 0 10.6483 0 11.0625V12.9375C0 13.3517 0.383732 13.6875 0.857143 13.6875ZM0.857143 21.1875H23.1429C23.6163 21.1875 24 20.8517 24 20.4375V18.5625C24 18.1483 23.6163 17.8125 23.1429 17.8125H0.857143C0.383732 17.8125 0 18.1483 0 18.5625V20.4375C0 20.8517 0.383732 21.1875 0.857143 21.1875Z" fill="black"/>
</svg>
