<svg width="16" height="16" viewBox="0 0 16 16" fill="none" xmlns="http://www.w3.org/2000/svg">
<path d="M0.591188 10.9736L3.98185 9.5198C4.38123 9.34695 4.84968 9.46352 5.12093 9.80043L6.49876 11.4823C8.66285 10.4198 10.4207 8.6601 11.4832 6.49789L9.80161 5.12162C9.46567 4.84721 9.35129 4.3813 9.52117 3.98192L10.9746 0.591251C11.1651 0.156558 11.634 -0.0812573 12.0931 0.0253065L15.2431 0.751878C15.6884 0.853442 16 1.24563 16 1.70376C16 9.58824 9.58742 16.0008 1.70295 16.0008C1.24451 16.0008 0.853566 15.6893 0.751377 15.2439L0.0248061 12.0939C-0.0804139 11.6361 0.156745 11.1611 0.591188 10.9736Z" fill="#828282"/>
</svg>
