<svg width="19" height="11" viewBox="0 0 19 11" fill="none" xmlns="http://www.w3.org/2000/svg">
<path fill-rule="evenodd" clip-rule="evenodd" d="M17.5927 0.750001C17.7263 0.327 17.5927 0.0194999 17.0015 0.0194999H15.0358C14.54 0.0194999 14.311 0.28875 14.1774 0.57675C14.1774 0.57675 13.1662 3.03675 11.7541 4.63163C11.2962 5.09288 11.0864 5.24663 10.8383 5.24663C10.7046 5.24663 10.5327 5.09288 10.5327 4.67025V0.730126C10.5327 0.230625 10.3803 0 9.96032 0H6.86893C6.56339 0 6.37271 0.230625 6.37271 0.461251C6.37271 0.941626 7.07875 1.05713 7.15495 2.40225V5.325C7.15495 5.95913 7.04234 6.07501 6.79236 6.07501C6.12461 6.07501 4.50271 3.59588 3.5298 0.771001C3.34063 0.2115 3.14845 0 2.65223 0H0.66775C0.0953392 0 0 0.268875 0 0.55725C0 1.07625 0.66775 3.68963 3.11016 7.14863C4.73205 9.51113 7.04084 10.7809 9.12066 10.7809C10.3803 10.7809 10.5327 10.4925 10.5327 10.0121V8.22488C10.5327 7.64851 10.6472 7.55251 11.0481 7.55251C11.3341 7.55251 11.8495 7.70588 13.0134 8.83988C14.3489 10.185 14.5779 10.8 15.3222 10.8H17.2876C17.86 10.8 18.1272 10.5116 17.9744 9.95438C17.8029 9.39713 17.1539 8.59013 16.3143 7.62938C15.8563 7.09163 15.1694 6.49576 14.9596 6.20738C14.6736 5.823 14.7498 5.66926 14.9596 5.3235C14.9405 5.3235 17.345 1.90275 17.5927 0.748501" fill="#828282"/>
</svg>
